<svg xmlns="http://www.w3.org/2000/svg" viewBox="0 0 23 23"><path d="M1 1h7v7h-7zM11 1h2v2h1v1h-1v1h1v6h-1v-2h-1v-1h1v-2h-1v-3h-1v3h-1v3h-1v-6h1v-1h1zM15 1h7v7h-7zM2 2v5h5v-5zM16 2v5h5v-5zM3 3h3v3h-3zM17 3h3v3h-3zM11 7h1v1h-1zM1 9h1v1h-1zM3 9h5v1h-2v1h3v-1h1v-1h2v2h-2v1h-5v-2h-1v1h-1zM15 9h5v3h1v1h-3v-1h1v-2h-4zM21 10h1v1h-1zM1 11h1v1h-1zM12 11h1v1h-1zM14 11h1v3h-1zM3 12h2v2h-4v-1h2zM16 12h1v2h2v1h-2v1h-2v-1h1zM6 13h3v1h-3zM10 13h3v1h1v5h-1v-2h-2v-1h2v-1h-1v-1h-1v2h-1v-1h-1v-1h1zM21 13h1v1h-1zM1 15h7v7h-7zM19 15h2v1h-1v1h-2v-1h1zM2 16v5h5v-5zM9 16h1v3h1v1h-2zM21 16h1v2h-1zM3 17h3v3h-3zM15 17h1v1h-1zM11 18h1v1h-1zM16 18h3v2h1v1h-1v1h-1v-1h-2v-1h2v-1h-2zM12 19h1v1h-1zM14 19h1v1h-1zM9 21h2v1h-2zM12 21h1v1h-1zM20 21h1v1h-1z"/></svg>